<svg width="268" height="54" viewBox="0 0 268 54" fill="none" xmlns="http://www.w3.org/2000/svg">
<g filter="url(#filter0_d)">
<rect x="4" width="260" height="46" rx="23" fill="url(#paint0_linear)"/>
<g filter="url(#filter1_d)">
<path d="M28.9877 13.872C29.8837 13.872 30.7077 13.984 31.4597 14.208C32.2277 14.416 33.0037 14.752 33.7877 15.216L34.3397 14.76C34.7237 14.456 35.0357 14.248 35.2757 14.136C35.5317 14.024 35.8197 13.968 36.1397 13.968C36.5237 13.968 36.8277 14.056 37.0517 14.232C37.2757 14.392 37.3877 14.632 37.3877 14.952C37.3877 15.08 37.3637 15.216 37.3157 15.36L36.3077 18.672C36.1957 19.056 36.0517 19.328 35.8757 19.488C35.7157 19.648 35.4677 19.728 35.1317 19.728C34.7797 19.728 34.4677 19.624 34.1957 19.416C33.9397 19.192 33.5317 18.744 32.9717 18.072C32.4117 17.432 31.8997 16.984 31.4357 16.728C30.9877 16.456 30.5237 16.32 30.0437 16.32C29.6917 16.32 29.3957 16.44 29.1557 16.68C28.9157 16.904 28.7957 17.184 28.7957 17.52C28.7957 17.904 28.9877 18.264 29.3717 18.6C29.7557 18.92 30.3557 19.328 31.1717 19.824C32.0037 20.32 32.6917 20.768 33.2357 21.168C33.7797 21.568 34.2437 22.064 34.6277 22.656C35.0117 23.248 35.2037 23.928 35.2037 24.696C35.2037 25.192 35.1237 25.688 34.9637 26.184C34.5797 27.464 33.8357 28.44 32.7317 29.112C31.6277 29.768 30.3397 30.096 28.8677 30.096C27.7637 30.096 26.8357 29.968 26.0837 29.712C25.3317 29.456 24.5637 29.024 23.7797 28.416L22.9157 29.136C22.5157 29.472 22.1877 29.704 21.9317 29.832C21.6757 29.944 21.3877 30 21.0677 30C20.6997 30 20.4037 29.912 20.1797 29.736C19.9717 29.56 19.8677 29.32 19.8677 29.016C19.8677 28.856 19.8997 28.688 19.9637 28.512L21.1397 24.936C21.2677 24.52 21.4437 24.224 21.6677 24.048C21.8917 23.872 22.1797 23.784 22.5317 23.784C22.8997 23.784 23.2277 23.912 23.5157 24.168C23.8197 24.424 24.2117 24.888 24.6917 25.56C25.2037 26.296 25.6757 26.808 26.1077 27.096C26.5557 27.384 27.0837 27.528 27.6917 27.528C28.1237 27.528 28.4517 27.464 28.6757 27.336C28.9157 27.192 29.0837 26.968 29.1797 26.664C29.2117 26.584 29.2277 26.464 29.2277 26.304C29.2277 25.92 29.0437 25.568 28.6757 25.248C28.3077 24.928 27.7397 24.544 26.9717 24.096C26.1557 23.6 25.4917 23.16 24.9797 22.776C24.4677 22.376 24.0197 21.88 23.6357 21.288C23.2677 20.696 23.0837 20 23.0837 19.2C23.0837 18.64 23.1717 18.088 23.3477 17.544C23.6837 16.44 24.3717 15.552 25.4117 14.88C26.4517 14.208 27.6437 13.872 28.9877 13.872ZM48.3426 17.304C49.2386 17.304 49.9506 17.576 50.4786 18.12C51.0226 18.664 51.2946 19.336 51.2946 20.136C51.2946 20.44 51.2626 20.72 51.1986 20.976C51.0386 21.632 50.7346 22.136 50.2866 22.488C49.8386 22.84 49.3026 23.016 48.6786 23.016C48.0706 23.016 47.6066 22.872 47.2866 22.584C46.9826 22.296 46.7106 21.912 46.4706 21.432C46.3426 21.16 46.2226 20.96 46.1106 20.832C45.9986 20.704 45.8706 20.64 45.7266 20.64C45.5666 20.64 45.4226 20.704 45.2946 20.832C45.1826 20.96 45.0786 21.184 44.9826 21.504L43.1346 27.504C43.1026 27.584 43.0866 27.704 43.0866 27.864C43.0866 28.072 43.1426 28.248 43.2546 28.392C43.3826 28.52 43.5506 28.648 43.7586 28.776C43.9506 28.904 44.0786 29.008 44.1426 29.088C44.2066 29.168 44.2306 29.272 44.2146 29.4C44.1826 29.608 44.0626 29.76 43.8546 29.856C43.6626 29.952 43.3266 30 42.8466 30H36.7026C36.2866 30 35.9906 29.936 35.8146 29.808C35.6226 29.664 35.5506 29.48 35.5986 29.256C35.6626 29.064 35.8306 28.896 36.1026 28.752C36.3426 28.624 36.5426 28.472 36.7026 28.296C36.8626 28.12 36.9986 27.84 37.1106 27.456L39.2466 20.52C39.2786 20.44 39.2946 20.328 39.2946 20.184C39.2946 20.008 39.2546 19.872 39.1746 19.776C39.1106 19.68 38.9986 19.56 38.8386 19.416C38.6786 19.288 38.5666 19.176 38.5026 19.08C38.4386 18.984 38.4306 18.856 38.4786 18.696C38.5746 18.328 39.0786 18.008 39.9906 17.736C40.9026 17.448 41.8546 17.304 42.8466 17.304C43.5026 17.304 44.0466 17.456 44.4786 17.76C44.9106 18.048 45.1906 18.464 45.3186 19.008C46.0866 17.872 47.0946 17.304 48.3426 17.304ZM53.313 25.152C53.953 25.152 54.489 25.368 54.921 25.8C55.369 26.232 55.593 26.76 55.593 27.384C55.593 27.816 55.473 28.24 55.233 28.656C55.009 29.072 54.689 29.416 54.273 29.688C53.873 29.944 53.417 30.072 52.905 30.072C52.281 30.072 51.753 29.856 51.321 29.424C50.889 28.992 50.665 28.464 50.649 27.84C50.649 27.408 50.761 26.984 50.985 26.568C51.209 26.152 51.521 25.816 51.921 25.56C52.337 25.288 52.801 25.152 53.313 25.152ZM75.9947 14.016C77.0827 14.016 78.0267 14.184 78.8267 14.52C79.6427 14.84 80.2587 15.288 80.6747 15.864C81.1067 16.424 81.3227 17.072 81.3227 17.808C81.3227 18.224 81.2667 18.608 81.1547 18.96C80.6907 20.576 79.3547 21.6 77.1467 22.032C77.9147 22.256 78.5227 22.632 78.9707 23.16C79.4187 23.672 79.6427 24.312 79.6427 25.08C79.6427 25.432 79.5787 25.848 79.4507 26.328C79.0987 27.576 78.3867 28.504 77.3147 29.112C76.2587 29.704 74.7547 30 72.8027 30H62.8187C62.4827 30 62.2267 29.944 62.0507 29.832C61.8587 29.72 61.7627 29.568 61.7627 29.376C61.7627 29.28 61.7867 29.176 61.8347 29.064C61.8987 28.888 62.0027 28.752 62.1467 28.656C62.2907 28.56 62.3787 28.504 62.4107 28.488C62.6667 28.328 62.8747 28.168 63.0347 28.008C63.1947 27.832 63.3307 27.552 63.4427 27.168L66.3707 16.824C66.4347 16.616 66.4667 16.416 66.4667 16.224C66.4667 16.048 66.4347 15.904 66.3707 15.792C66.3227 15.664 66.2507 15.52 66.1547 15.36C66.0107 15.152 65.9387 14.984 65.9387 14.856C65.9387 14.808 65.9547 14.72 65.9867 14.592C66.0507 14.384 66.1867 14.24 66.3947 14.16C66.6187 14.064 66.9547 14.016 67.4027 14.016H75.9947ZM74.9147 18.408C75.0267 18.056 75.0827 17.728 75.0827 17.424C75.0827 16.592 74.6107 16.176 73.6667 16.176H72.5867L71.3147 20.664H72.3707C73.0427 20.664 73.5707 20.504 73.9547 20.184C74.3547 19.848 74.6747 19.256 74.9147 18.408ZM73.1627 25.464C73.2747 25.08 73.3307 24.728 73.3307 24.408C73.3307 23.544 72.8347 23.112 71.8427 23.112H70.6427L69.2747 27.84H70.4987C71.1867 27.84 71.7387 27.672 72.1547 27.336C72.5707 26.984 72.9067 26.36 73.1627 25.464ZM89.2125 17.304C91.0525 17.304 92.5245 17.648 93.6285 18.336C94.7325 19.008 95.2845 20.04 95.2845 21.432C95.2845 21.96 95.1885 22.56 94.9965 23.232L94.0125 26.544C93.9965 26.608 93.9885 26.688 93.9885 26.784C93.9885 27.04 94.0925 27.168 94.3005 27.168C94.4925 27.168 94.6525 27.088 94.7805 26.928C94.9245 26.752 95.0205 26.664 95.0685 26.664C95.1485 26.664 95.2125 26.72 95.2605 26.832C95.3245 26.944 95.3565 27.072 95.3565 27.216C95.3725 27.648 95.2045 28.088 94.8525 28.536C94.5165 28.984 94.0605 29.352 93.4845 29.64C92.9085 29.928 92.2765 30.072 91.5885 30.072C90.7565 30.072 90.0445 29.92 89.4525 29.616C88.8605 29.312 88.4525 28.864 88.2285 28.272C87.7485 28.848 87.1805 29.296 86.5245 29.616C85.8685 29.92 85.1645 30.072 84.4125 30.072C83.5645 30.072 82.8525 29.912 82.2765 29.592C81.7005 29.256 81.2685 28.832 80.9805 28.32C80.7085 27.792 80.5725 27.24 80.5725 26.664C80.5725 26.408 80.5965 26.16 80.6445 25.92C80.9005 24.816 81.4525 23.984 82.3005 23.424C83.1645 22.864 84.1885 22.584 85.3725 22.584C86.7005 22.584 88.0045 22.792 89.2845 23.208L89.8845 21.624C90.0925 20.952 90.1965 20.432 90.1965 20.064C90.1805 19.68 90.0525 19.392 89.8125 19.2C89.5725 19.008 89.2045 18.912 88.7085 18.912C88.8045 19.168 88.8525 19.432 88.8525 19.704C88.8525 20.296 88.6285 20.808 88.1805 21.24C87.7325 21.672 87.0925 21.888 86.2605 21.888C85.4765 21.888 84.8605 21.72 84.4125 21.384C83.9805 21.032 83.7645 20.6 83.7645 20.088C83.7645 19.288 84.2125 18.624 85.1085 18.096C86.0045 17.568 87.3725 17.304 89.2125 17.304ZM87.8685 24.576C87.4205 24.576 87.0525 24.752 86.7645 25.104C86.4925 25.44 86.3565 25.808 86.3565 26.208C86.3565 26.464 86.4125 26.672 86.5245 26.832C86.6525 26.992 86.8285 27.072 87.0525 27.072C87.2605 27.072 87.4845 26.992 87.7245 26.832C87.9805 26.656 88.1645 26.4 88.2765 26.064L88.7805 24.648C88.5085 24.6 88.2045 24.576 87.8685 24.576ZM107.076 17.616C107.38 17.616 107.612 17.68 107.772 17.808C107.948 17.936 108.036 18.112 108.036 18.336C108.036 18.4 108.02 18.512 107.988 18.672C107.78 19.376 107.3 19.728 106.548 19.728H105.156L103.356 25.656C103.276 25.896 103.236 26.144 103.236 26.4C103.236 26.688 103.316 26.888 103.476 27C103.636 27.112 103.86 27.168 104.148 27.168C104.404 27.168 104.724 27.136 105.108 27.072C105.3 27.024 105.468 27 105.612 27C105.724 27 105.804 27.04 105.852 27.12C105.916 27.184 105.948 27.272 105.948 27.384C105.964 27.704 105.724 28.096 105.228 28.56C104.748 29.008 104.092 29.4 103.26 29.736C102.428 30.056 101.508 30.216 100.5 30.216C99.4117 30.216 98.5397 29.968 97.8837 29.472C97.2277 28.976 96.8997 28.296 96.8997 27.432C96.8997 27.032 96.9637 26.648 97.0917 26.28L98.6277 21.528C98.7077 21.256 98.7477 21.04 98.7477 20.88C98.7477 20.56 98.6677 20.288 98.5077 20.064C98.3637 19.84 98.1557 19.608 97.8837 19.368C97.6437 19.144 97.4757 18.96 97.3797 18.816C97.2837 18.656 97.2597 18.472 97.3077 18.264C97.3717 18.056 97.5077 17.896 97.7157 17.784C97.9237 17.672 98.2517 17.616 98.6997 17.616H100.044L101.556 16.104C102.084 15.576 102.564 15.208 102.996 15C103.444 14.792 104.02 14.688 104.724 14.688C105.732 14.688 106.236 15.072 106.236 15.84C106.236 16.08 106.204 16.304 106.14 16.512L105.804 17.616H107.076ZM115.228 17.304C117.068 17.304 118.54 17.648 119.644 18.336C120.748 19.008 121.3 20.04 121.3 21.432C121.3 21.96 121.204 22.56 121.012 23.232L120.028 26.544C120.012 26.608 120.004 26.688 120.004 26.784C120.004 27.04 120.108 27.168 120.316 27.168C120.508 27.168 120.668 27.088 120.796 26.928C120.94 26.752 121.036 26.664 121.084 26.664C121.164 26.664 121.228 26.72 121.276 26.832C121.34 26.944 121.372 27.072 121.372 27.216C121.388 27.648 121.22 28.088 120.868 28.536C120.532 28.984 120.076 29.352 119.5 29.64C118.924 29.928 118.292 30.072 117.604 30.072C116.772 30.072 116.06 29.92 115.468 29.616C114.876 29.312 114.468 28.864 114.244 28.272C113.764 28.848 113.196 29.296 112.54 29.616C111.884 29.92 111.18 30.072 110.428 30.072C109.58 30.072 108.868 29.912 108.292 29.592C107.716 29.256 107.284 28.832 106.996 28.32C106.724 27.792 106.588 27.24 106.588 26.664C106.588 26.408 106.612 26.16 106.66 25.92C106.916 24.816 107.468 23.984 108.316 23.424C109.18 22.864 110.204 22.584 111.388 22.584C112.716 22.584 114.02 22.792 115.3 23.208L115.9 21.624C116.108 20.952 116.212 20.432 116.212 20.064C116.196 19.68 116.068 19.392 115.828 19.2C115.588 19.008 115.22 18.912 114.724 18.912C114.82 19.168 114.868 19.432 114.868 19.704C114.868 20.296 114.644 20.808 114.196 21.24C113.748 21.672 113.108 21.888 112.276 21.888C111.492 21.888 110.876 21.72 110.428 21.384C109.996 21.032 109.78 20.6 109.78 20.088C109.78 19.288 110.228 18.624 111.124 18.096C112.02 17.568 113.388 17.304 115.228 17.304ZM113.884 24.576C113.436 24.576 113.068 24.752 112.78 25.104C112.508 25.44 112.372 25.808 112.372 26.208C112.372 26.464 112.428 26.672 112.54 26.832C112.668 26.992 112.844 27.072 113.068 27.072C113.276 27.072 113.5 26.992 113.74 26.832C113.996 26.656 114.18 26.4 114.292 26.064L114.796 24.648C114.524 24.6 114.22 24.576 113.884 24.576ZM133.091 17.616C133.395 17.616 133.627 17.68 133.787 17.808C133.963 17.936 134.051 18.112 134.051 18.336C134.051 18.4 134.035 18.512 134.003 18.672C133.795 19.376 133.315 19.728 132.563 19.728H131.171L129.371 25.656C129.291 25.896 129.251 26.144 129.251 26.4C129.251 26.688 129.331 26.888 129.491 27C129.651 27.112 129.875 27.168 130.163 27.168C130.419 27.168 130.739 27.136 131.123 27.072C131.315 27.024 131.483 27 131.627 27C131.739 27 131.819 27.04 131.867 27.12C131.931 27.184 131.963 27.272 131.963 27.384C131.979 27.704 131.739 28.096 131.243 28.56C130.763 29.008 130.107 29.4 129.275 29.736C128.443 30.056 127.523 30.216 126.515 30.216C125.427 30.216 124.555 29.968 123.899 29.472C123.243 28.976 122.915 28.296 122.915 27.432C122.915 27.032 122.979 26.648 123.107 26.28L124.643 21.528C124.723 21.256 124.763 21.04 124.763 20.88C124.763 20.56 124.683 20.288 124.523 20.064C124.379 19.84 124.171 19.608 123.899 19.368C123.659 19.144 123.491 18.96 123.395 18.816C123.299 18.656 123.275 18.472 123.323 18.264C123.387 18.056 123.523 17.896 123.731 17.784C123.939 17.672 124.267 17.616 124.715 17.616H126.059L127.571 16.104C128.099 15.576 128.579 15.208 129.011 15C129.459 14.792 130.035 14.688 130.739 14.688C131.747 14.688 132.251 15.072 132.251 15.84C132.251 16.08 132.219 16.304 132.155 16.512L131.819 17.616H133.091ZM141.244 17.304C143.084 17.304 144.556 17.648 145.66 18.336C146.764 19.008 147.316 20.04 147.316 21.432C147.316 21.96 147.22 22.56 147.028 23.232L146.044 26.544C146.028 26.608 146.02 26.688 146.02 26.784C146.02 27.04 146.124 27.168 146.332 27.168C146.524 27.168 146.684 27.088 146.812 26.928C146.956 26.752 147.052 26.664 147.1 26.664C147.18 26.664 147.244 26.72 147.292 26.832C147.356 26.944 147.388 27.072 147.388 27.216C147.404 27.648 147.236 28.088 146.884 28.536C146.548 28.984 146.092 29.352 145.516 29.64C144.94 29.928 144.308 30.072 143.62 30.072C142.788 30.072 142.076 29.92 141.484 29.616C140.892 29.312 140.484 28.864 140.26 28.272C139.78 28.848 139.212 29.296 138.556 29.616C137.9 29.92 137.196 30.072 136.444 30.072C135.596 30.072 134.884 29.912 134.308 29.592C133.732 29.256 133.3 28.832 133.012 28.32C132.74 27.792 132.604 27.24 132.604 26.664C132.604 26.408 132.628 26.16 132.676 25.92C132.932 24.816 133.484 23.984 134.332 23.424C135.196 22.864 136.22 22.584 137.404 22.584C138.732 22.584 140.036 22.792 141.316 23.208L141.916 21.624C142.124 20.952 142.228 20.432 142.228 20.064C142.212 19.68 142.084 19.392 141.844 19.2C141.604 19.008 141.236 18.912 140.74 18.912C140.836 19.168 140.884 19.432 140.884 19.704C140.884 20.296 140.66 20.808 140.212 21.24C139.764 21.672 139.124 21.888 138.292 21.888C137.508 21.888 136.892 21.72 136.444 21.384C136.012 21.032 135.796 20.6 135.796 20.088C135.796 19.288 136.244 18.624 137.14 18.096C138.036 17.568 139.404 17.304 141.244 17.304ZM139.9 24.576C139.452 24.576 139.084 24.752 138.796 25.104C138.524 25.44 138.388 25.808 138.388 26.208C138.388 26.464 138.444 26.672 138.556 26.832C138.684 26.992 138.86 27.072 139.084 27.072C139.292 27.072 139.516 26.992 139.756 26.832C140.012 26.656 140.196 26.4 140.308 26.064L140.812 24.648C140.54 24.6 140.236 24.576 139.9 24.576ZM168.04 26.688C168.008 26.752 167.992 26.848 167.992 26.976C167.992 27.088 168.016 27.176 168.064 27.24C168.128 27.304 168.208 27.336 168.304 27.336C168.496 27.336 168.656 27.256 168.784 27.096C168.928 26.92 169.024 26.832 169.072 26.832C169.152 26.832 169.216 26.888 169.264 27C169.312 27.096 169.336 27.216 169.336 27.36C169.352 27.824 169.2 28.28 168.88 28.728C168.56 29.16 168.088 29.52 167.464 29.808C166.856 30.08 166.12 30.216 165.256 30.216C164.2 30.216 163.36 29.976 162.736 29.496C162.112 29 161.792 28.344 161.776 27.528C161.776 26.936 161.92 26.272 162.208 25.536L163.528 22.08C163.608 21.872 163.648 21.704 163.648 21.576C163.648 21.368 163.576 21.208 163.432 21.096C163.304 20.968 163.144 20.904 162.952 20.904C162.6 20.904 162.264 21.072 161.944 21.408C161.624 21.728 161.392 22.128 161.248 22.608L159.76 27.504C159.696 27.68 159.664 27.848 159.664 28.008C159.664 28.2 159.704 28.36 159.784 28.488C159.864 28.6 159.976 28.72 160.12 28.848C160.232 28.944 160.312 29.032 160.36 29.112C160.408 29.192 160.416 29.288 160.384 29.4C160.32 29.608 160.168 29.76 159.928 29.856C159.688 29.952 159.312 30 158.8 30H153.328C152.912 30 152.616 29.936 152.44 29.808C152.248 29.664 152.176 29.48 152.224 29.256C152.288 29.064 152.456 28.896 152.728 28.752C152.968 28.624 153.168 28.472 153.328 28.296C153.488 28.12 153.624 27.84 153.736 27.456L155.872 20.52C155.904 20.44 155.92 20.328 155.92 20.184C155.92 20.008 155.88 19.872 155.8 19.776C155.736 19.68 155.624 19.56 155.464 19.416C155.304 19.288 155.192 19.176 155.128 19.08C155.064 18.984 155.056 18.856 155.104 18.696C155.2 18.328 155.704 18.008 156.616 17.736C157.528 17.448 158.48 17.304 159.472 17.304C160.272 17.304 160.904 17.528 161.368 17.976C161.832 18.408 162.04 19.016 161.992 19.8C162.648 18.856 163.344 18.208 164.08 17.856C164.816 17.488 165.616 17.304 166.48 17.304C167.456 17.304 168.24 17.6 168.832 18.192C169.44 18.784 169.744 19.552 169.744 20.496C169.744 20.992 169.664 21.48 169.504 21.96L168.04 26.688ZM178.931 17.304C180.771 17.304 182.243 17.648 183.347 18.336C184.451 19.008 185.003 20.04 185.003 21.432C185.003 21.96 184.907 22.56 184.715 23.232L183.731 26.544C183.715 26.608 183.707 26.688 183.707 26.784C183.707 27.04 183.811 27.168 184.019 27.168C184.211 27.168 184.371 27.088 184.499 26.928C184.643 26.752 184.739 26.664 184.787 26.664C184.867 26.664 184.931 26.72 184.979 26.832C185.043 26.944 185.075 27.072 185.075 27.216C185.091 27.648 184.923 28.088 184.571 28.536C184.235 28.984 183.779 29.352 183.203 29.64C182.627 29.928 181.995 30.072 181.307 30.072C180.475 30.072 179.763 29.92 179.171 29.616C178.579 29.312 178.171 28.864 177.947 28.272C177.467 28.848 176.899 29.296 176.243 29.616C175.587 29.92 174.883 30.072 174.131 30.072C173.283 30.072 172.571 29.912 171.995 29.592C171.419 29.256 170.987 28.832 170.699 28.32C170.427 27.792 170.291 27.24 170.291 26.664C170.291 26.408 170.315 26.16 170.363 25.92C170.619 24.816 171.171 23.984 172.019 23.424C172.883 22.864 173.907 22.584 175.091 22.584C176.419 22.584 177.723 22.792 179.003 23.208L179.603 21.624C179.811 20.952 179.915 20.432 179.915 20.064C179.899 19.68 179.771 19.392 179.531 19.2C179.291 19.008 178.923 18.912 178.427 18.912C178.523 19.168 178.571 19.432 178.571 19.704C178.571 20.296 178.347 20.808 177.899 21.24C177.451 21.672 176.811 21.888 175.979 21.888C175.195 21.888 174.579 21.72 174.131 21.384C173.699 21.032 173.483 20.6 173.483 20.088C173.483 19.288 173.931 18.624 174.827 18.096C175.723 17.568 177.091 17.304 178.931 17.304ZM177.587 24.576C177.139 24.576 176.771 24.752 176.483 25.104C176.211 25.44 176.075 25.808 176.075 26.208C176.075 26.464 176.131 26.672 176.243 26.832C176.371 26.992 176.547 27.072 176.771 27.072C176.979 27.072 177.203 26.992 177.443 26.832C177.699 26.656 177.883 26.4 177.995 26.064L178.499 24.648C178.227 24.6 177.923 24.576 177.587 24.576ZM220.991 16.32C220.991 16.896 220.855 17.4 220.583 17.832C220.311 18.248 219.967 18.568 219.551 18.792C219.151 19 218.759 19.104 218.375 19.104C218.007 19.104 217.655 19.016 217.319 18.84C216.999 18.648 216.791 18.432 216.695 18.192L210.863 27.936C210.415 28.688 210.007 29.224 209.639 29.544C209.287 29.848 208.879 30 208.415 30C207.343 30 206.735 29.312 206.591 27.936L205.823 20.88L200.975 27.936C200.415 28.752 199.959 29.304 199.607 29.592C199.271 29.864 198.879 30 198.431 30C197.455 30 196.863 29.232 196.655 27.696L195.119 16.848C195.071 16.528 194.975 16.272 194.831 16.08C194.703 15.888 194.535 15.704 194.327 15.528C194.183 15.4 194.079 15.296 194.015 15.216C193.951 15.12 193.919 15.016 193.919 14.904C193.839 14.312 194.191 14.016 194.975 14.016H200.951C201.319 14.016 201.591 14.096 201.767 14.256C201.959 14.4 202.047 14.6 202.031 14.856C202.031 14.984 201.991 15.112 201.911 15.24C201.847 15.352 201.775 15.456 201.695 15.552C201.519 15.744 201.391 15.928 201.311 16.104C201.231 16.28 201.207 16.512 201.239 16.8L201.863 22.584L205.463 17.424L205.391 16.848C205.359 16.544 205.279 16.296 205.151 16.104C205.023 15.912 204.847 15.728 204.623 15.552C204.463 15.408 204.351 15.296 204.287 15.216C204.223 15.12 204.191 15.016 204.191 14.904C204.111 14.312 204.463 14.016 205.247 14.016H211.247C211.615 14.016 211.895 14.096 212.087 14.256C212.279 14.4 212.367 14.6 212.351 14.856C212.351 15.064 212.239 15.296 212.015 15.552C211.855 15.744 211.735 15.928 211.655 16.104C211.575 16.28 211.543 16.512 211.559 16.8L211.847 22.032L215.087 16.368C215.615 15.456 216.127 14.824 216.623 14.472C217.119 14.104 217.767 13.92 218.567 13.92C219.287 13.92 219.871 14.136 220.319 14.568C220.767 15 220.991 15.584 220.991 16.32ZM226.452 17.184C228.484 17.184 229.956 17.512 230.868 18.168C231.78 18.808 232.236 19.632 232.236 20.64C232.236 20.944 232.204 21.224 232.14 21.48C231.9 22.536 231.228 23.296 230.124 23.76C229.036 24.208 227.748 24.432 226.26 24.432C225.508 24.432 224.804 24.384 224.148 24.288C224.132 25.12 224.356 25.704 224.82 26.04C225.284 26.376 225.932 26.544 226.764 26.544C227.148 26.544 227.516 26.504 227.868 26.424C228.22 26.328 228.668 26.192 229.212 26.016C229.66 25.856 229.964 25.776 230.124 25.776C230.3 25.776 230.388 25.88 230.388 26.088C230.404 26.648 230.196 27.24 229.764 27.864C229.332 28.472 228.692 28.992 227.844 29.424C226.996 29.856 225.972 30.072 224.772 30.072C222.996 30.072 221.54 29.624 220.404 28.728C219.268 27.832 218.7 26.528 218.7 24.816C218.7 24.336 218.764 23.776 218.892 23.136C219.292 21.168 220.164 19.688 221.508 18.696C222.868 17.688 224.516 17.184 226.452 17.184ZM224.316 22.848C224.38 22.864 224.468 22.872 224.58 22.872C225.252 22.872 225.764 22.56 226.116 21.936C226.468 21.312 226.636 20.616 226.62 19.848C226.604 19.4 226.476 19.176 226.236 19.176C226.06 19.176 225.852 19.32 225.612 19.608C225.372 19.88 225.132 20.296 224.892 20.856C224.668 21.416 224.476 22.08 224.316 22.848ZM243.986 17.208C245.17 17.208 246.114 17.632 246.818 18.48C247.538 19.328 247.898 20.448 247.898 21.84C247.898 22.56 247.81 23.264 247.634 23.952C247.122 26.016 246.242 27.576 244.994 28.632C243.762 29.688 242.338 30.216 240.722 30.216C239.81 30.216 239.018 30.064 238.346 29.76C237.69 29.44 237.162 28.992 236.762 28.416L235.898 29.16C235.562 29.448 235.234 29.664 234.914 29.808C234.594 29.936 234.226 30 233.81 30H232.754C232.354 30 232.042 29.92 231.818 29.76C231.61 29.584 231.506 29.336 231.506 29.016C231.506 28.872 231.53 28.704 231.578 28.512L235.586 15.48C235.634 15.336 235.658 15.216 235.658 15.12C235.658 14.848 235.49 14.592 235.154 14.352C234.994 14.208 234.882 14.096 234.818 14.016C234.754 13.92 234.746 13.8 234.794 13.656C234.906 13.288 235.41 12.968 236.306 12.696C237.218 12.408 238.17 12.264 239.162 12.264C240.09 12.264 240.77 12.448 241.202 12.816C241.65 13.168 241.874 13.648 241.874 14.256C241.874 14.592 241.818 14.928 241.706 15.264L240.698 18.528C241.626 17.648 242.722 17.208 243.986 17.208ZM241.274 23.808C241.594 22.72 241.754 21.84 241.754 21.168C241.754 20.432 241.538 20.064 241.106 20.064C240.722 20.064 240.362 20.264 240.026 20.664L238.466 25.752L238.322 26.208C238.242 26.448 238.202 26.696 238.202 26.952C238.202 27.512 238.466 27.792 238.994 27.792C239.378 27.792 239.746 27.512 240.098 26.952C240.45 26.392 240.842 25.344 241.274 23.808Z" fill="#DDAA22"/>
</g>
</g>
<defs>
<filter id="filter0_d" x="0" y="0" width="268" height="54" filterUnits="userSpaceOnUse" color-interpolation-filters="sRGB">
<feFlood flood-opacity="0" result="BackgroundImageFix"/>
<feColorMatrix in="SourceAlpha" type="matrix" values="0 0 0 0 0 0 0 0 0 0 0 0 0 0 0 0 0 0 127 0"/>
<feOffset dy="4"/>
<feGaussianBlur stdDeviation="2"/>
<feColorMatrix type="matrix" values="0 0 0 0 0 0 0 0 0 0 0 0 0 0 0 0 0 0 0.25 0"/>
<feBlend mode="normal" in2="BackgroundImageFix" result="effect1_dropShadow"/>
<feBlend mode="normal" in="SourceGraphic" in2="effect1_dropShadow" result="shape"/>
</filter>
<filter id="filter1_d" x="19.8677" y="12.264" width="230.03" height="19.952" filterUnits="userSpaceOnUse" color-interpolation-filters="sRGB">
<feFlood flood-opacity="0" result="BackgroundImageFix"/>
<feColorMatrix in="SourceAlpha" type="matrix" values="0 0 0 0 0 0 0 0 0 0 0 0 0 0 0 0 0 0 127 0"/>
<feOffset dx="2" dy="2"/>
<feColorMatrix type="matrix" values="0 0 0 0 0.533333 0 0 0 0 0.333333 0 0 0 0 0 0 0 0 1 0"/>
<feBlend mode="normal" in2="BackgroundImageFix" result="effect1_dropShadow"/>
<feBlend mode="normal" in="SourceGraphic" in2="effect1_dropShadow" result="shape"/>
</filter>
<linearGradient id="paint0_linear" x1="4" y1="0" x2="265.436" y2="35.3923" gradientUnits="userSpaceOnUse">
<stop stop-color="#111111"/>
<stop offset="1" stop-color="#2B2B2B"/>
</linearGradient>
</defs>
</svg>
