<svg width="268" height="89" viewBox="0 0 268 89" fill="none" xmlns="http://www.w3.org/2000/svg">
<g filter="url(#filter0_d)">
<rect x="4" width="260" height="81" rx="40.5" fill="url(#paint0_linear)"/>
<g filter="url(#filter1_d)">
<path d="M53.1564 14.016C53.7484 14.016 54.2044 14.144 54.5244 14.4C54.8604 14.656 55.0284 15.008 55.0284 15.456C55.0284 15.68 54.9964 15.896 54.9324 16.104L54.3084 18.336C54.1964 18.768 54.0284 19.072 53.8044 19.248C53.5964 19.408 53.2924 19.488 52.8924 19.488C52.5084 19.488 52.2044 19.408 51.9804 19.248C51.7724 19.072 51.6124 18.792 51.5004 18.408L51.1164 17.04C51.0364 16.752 50.9404 16.56 50.8284 16.464C50.7164 16.368 50.5004 16.32 50.1804 16.32H47.6604L46.4604 20.592H47.5164C47.6284 20.592 47.7804 20.512 47.9724 20.352L48.7884 19.632C49.0284 19.424 49.2364 19.272 49.4124 19.176C49.5884 19.08 49.8044 19.032 50.0604 19.032C50.3484 19.032 50.5804 19.112 50.7564 19.272C50.9484 19.416 51.0444 19.608 51.0444 19.848C51.0444 19.912 51.0284 20.008 50.9964 20.136L50.0124 23.472C49.9164 23.824 49.7484 24.088 49.5084 24.264C49.2844 24.424 49.0364 24.504 48.7644 24.504C48.3164 24.504 47.9804 24.272 47.7564 23.808L47.3484 22.968C47.2364 22.728 47.0604 22.608 46.8204 22.608H45.8844L44.4684 27.696H46.5804C46.8844 27.696 47.1484 27.64 47.3724 27.528C47.6124 27.4 47.8684 27.184 48.1404 26.88L49.5804 25.296C49.8364 25.024 50.0764 24.832 50.3004 24.72C50.5404 24.592 50.8284 24.528 51.1644 24.528C51.5164 24.528 51.8044 24.608 52.0284 24.768C52.2524 24.928 52.3644 25.168 52.3644 25.488C52.3644 25.616 52.3404 25.768 52.2924 25.944L51.5964 28.368C51.4204 28.976 51.1644 29.4 50.8284 29.64C50.4924 29.88 50.0044 30 49.3644 30H37.9164C37.5804 30 37.3244 29.944 37.1484 29.832C36.9564 29.72 36.8604 29.568 36.8604 29.376C36.8604 29.28 36.8844 29.176 36.9324 29.064C36.9964 28.888 37.1004 28.752 37.2444 28.656C37.3884 28.56 37.4764 28.504 37.5084 28.488C37.7644 28.328 37.9724 28.168 38.1324 28.008C38.2924 27.832 38.4284 27.552 38.5404 27.168L41.4924 16.824C41.5564 16.616 41.5884 16.424 41.5884 16.248C41.5884 16.056 41.5564 15.896 41.4924 15.768C41.4444 15.64 41.3644 15.504 41.2524 15.36C41.1084 15.152 41.0364 14.984 41.0364 14.856C41.0364 14.808 41.0524 14.72 41.0844 14.592C41.1484 14.384 41.2924 14.24 41.5164 14.16C41.7404 14.064 42.0684 14.016 42.5004 14.016H53.1564ZM68.4419 26.688C68.4099 26.752 68.3939 26.848 68.3939 26.976C68.3939 27.088 68.4179 27.176 68.4659 27.24C68.5299 27.304 68.6099 27.336 68.7059 27.336C68.8979 27.336 69.0579 27.256 69.1859 27.096C69.3299 26.92 69.4259 26.832 69.4739 26.832C69.5539 26.832 69.6179 26.888 69.6659 27C69.7139 27.096 69.7379 27.216 69.7379 27.36C69.7539 27.824 69.6019 28.28 69.2819 28.728C68.9619 29.16 68.4899 29.52 67.8659 29.808C67.2579 30.08 66.5219 30.216 65.6579 30.216C64.6019 30.216 63.7619 29.976 63.1379 29.496C62.5139 29 62.1939 28.344 62.1779 27.528C62.1779 26.936 62.3219 26.272 62.6099 25.536L63.9299 22.08C64.0099 21.872 64.0499 21.704 64.0499 21.576C64.0499 21.368 63.9779 21.208 63.8339 21.096C63.7059 20.968 63.5459 20.904 63.3539 20.904C63.0019 20.904 62.6659 21.072 62.3459 21.408C62.0259 21.728 61.7939 22.128 61.6499 22.608L60.1619 27.504C60.0979 27.68 60.0659 27.848 60.0659 28.008C60.0659 28.2 60.1059 28.36 60.1859 28.488C60.2659 28.6 60.3779 28.72 60.5219 28.848C60.6339 28.944 60.7139 29.032 60.7619 29.112C60.8099 29.192 60.8179 29.288 60.7859 29.4C60.7219 29.608 60.5699 29.76 60.3299 29.856C60.0899 29.952 59.7139 30 59.2019 30H53.7299C53.3139 30 53.0179 29.936 52.8419 29.808C52.6499 29.664 52.5779 29.48 52.6259 29.256C52.6899 29.064 52.8579 28.896 53.1299 28.752C53.3699 28.624 53.5699 28.472 53.7299 28.296C53.8899 28.12 54.0259 27.84 54.1379 27.456L56.2739 20.52C56.3059 20.44 56.3219 20.328 56.3219 20.184C56.3219 20.008 56.2819 19.872 56.2019 19.776C56.1379 19.68 56.0259 19.56 55.8659 19.416C55.7059 19.288 55.5939 19.176 55.5299 19.08C55.4659 18.984 55.4579 18.856 55.5059 18.696C55.6019 18.328 56.1059 18.008 57.0179 17.736C57.9299 17.448 58.8819 17.304 59.8739 17.304C60.6739 17.304 61.3059 17.528 61.7699 17.976C62.2339 18.408 62.4419 19.016 62.3939 19.8C63.0499 18.856 63.7459 18.208 64.4819 17.856C65.2179 17.488 66.0179 17.304 66.8819 17.304C67.8579 17.304 68.6419 17.6 69.2339 18.192C69.8419 18.784 70.1459 19.552 70.1459 20.496C70.1459 20.992 70.0659 21.48 69.9059 21.96L68.4419 26.688ZM81.4936 17.616C81.7976 17.616 82.0296 17.68 82.1896 17.808C82.3656 17.936 82.4536 18.112 82.4536 18.336C82.4536 18.4 82.4376 18.512 82.4056 18.672C82.1976 19.376 81.7176 19.728 80.9656 19.728H79.5736L77.7736 25.656C77.6936 25.896 77.6536 26.144 77.6536 26.4C77.6536 26.688 77.7336 26.888 77.8936 27C78.0536 27.112 78.2776 27.168 78.5656 27.168C78.8216 27.168 79.1416 27.136 79.5256 27.072C79.7176 27.024 79.8856 27 80.0296 27C80.1416 27 80.2216 27.04 80.2696 27.12C80.3336 27.184 80.3656 27.272 80.3656 27.384C80.3816 27.704 80.1416 28.096 79.6456 28.56C79.1656 29.008 78.5096 29.4 77.6776 29.736C76.8456 30.056 75.9256 30.216 74.9176 30.216C73.8296 30.216 72.9576 29.968 72.3016 29.472C71.6456 28.976 71.3176 28.296 71.3176 27.432C71.3176 27.032 71.3816 26.648 71.5096 26.28L73.0456 21.528C73.1256 21.256 73.1656 21.04 73.1656 20.88C73.1656 20.56 73.0856 20.288 72.9256 20.064C72.7816 19.84 72.5736 19.608 72.3016 19.368C72.0616 19.144 71.8936 18.96 71.7976 18.816C71.7016 18.656 71.6776 18.472 71.7256 18.264C71.7896 18.056 71.9256 17.896 72.1336 17.784C72.3416 17.672 72.6696 17.616 73.1176 17.616H74.4616L75.9736 16.104C76.5016 15.576 76.9816 15.208 77.4136 15C77.8616 14.792 78.4376 14.688 79.1416 14.688C80.1496 14.688 80.6536 15.072 80.6536 15.84C80.6536 16.08 80.6216 16.304 80.5576 16.512L80.2216 17.616H81.4936ZM92.8621 17.304C93.7581 17.304 94.4701 17.576 94.9981 18.12C95.5421 18.664 95.8141 19.336 95.8141 20.136C95.8141 20.44 95.7821 20.72 95.7181 20.976C95.5581 21.632 95.2541 22.136 94.8061 22.488C94.3581 22.84 93.8221 23.016 93.1981 23.016C92.5901 23.016 92.1261 22.872 91.8061 22.584C91.5021 22.296 91.2301 21.912 90.9901 21.432C90.8621 21.16 90.7421 20.96 90.6301 20.832C90.5181 20.704 90.3901 20.64 90.2461 20.64C90.0861 20.64 89.9421 20.704 89.8141 20.832C89.7021 20.96 89.5981 21.184 89.5021 21.504L87.6541 27.504C87.6221 27.584 87.6061 27.704 87.6061 27.864C87.6061 28.072 87.6621 28.248 87.7741 28.392C87.9021 28.52 88.0701 28.648 88.2781 28.776C88.4701 28.904 88.5981 29.008 88.6621 29.088C88.7261 29.168 88.7501 29.272 88.7341 29.4C88.7021 29.608 88.5821 29.76 88.3741 29.856C88.1821 29.952 87.8461 30 87.3661 30H81.2221C80.8061 30 80.5101 29.936 80.3341 29.808C80.1421 29.664 80.0701 29.48 80.1181 29.256C80.1821 29.064 80.3501 28.896 80.6221 28.752C80.8621 28.624 81.0621 28.472 81.2221 28.296C81.3821 28.12 81.5181 27.84 81.6301 27.456L83.7661 20.52C83.7981 20.44 83.8141 20.328 83.8141 20.184C83.8141 20.008 83.7741 19.872 83.6941 19.776C83.6301 19.68 83.5181 19.56 83.3581 19.416C83.1981 19.288 83.0861 19.176 83.0221 19.08C82.9581 18.984 82.9501 18.856 82.9981 18.696C83.0941 18.328 83.5981 18.008 84.5101 17.736C85.4221 17.448 86.3741 17.304 87.3661 17.304C88.0221 17.304 88.5661 17.456 88.9981 17.76C89.4301 18.048 89.7101 18.464 89.8381 19.008C90.6061 17.872 91.6141 17.304 92.8621 17.304ZM103.113 17.184C105.145 17.184 106.617 17.512 107.529 18.168C108.441 18.808 108.897 19.632 108.897 20.64C108.897 20.944 108.865 21.224 108.801 21.48C108.561 22.536 107.889 23.296 106.785 23.76C105.697 24.208 104.409 24.432 102.921 24.432C102.169 24.432 101.465 24.384 100.809 24.288C100.793 25.12 101.017 25.704 101.481 26.04C101.945 26.376 102.593 26.544 103.425 26.544C103.809 26.544 104.177 26.504 104.529 26.424C104.881 26.328 105.329 26.192 105.873 26.016C106.321 25.856 106.625 25.776 106.785 25.776C106.961 25.776 107.049 25.88 107.049 26.088C107.065 26.648 106.857 27.24 106.425 27.864C105.993 28.472 105.353 28.992 104.505 29.424C103.657 29.856 102.633 30.072 101.433 30.072C99.6566 30.072 98.2006 29.624 97.0646 28.728C95.9286 27.832 95.3606 26.528 95.3606 24.816C95.3606 24.336 95.4246 23.776 95.5526 23.136C95.9526 21.168 96.8246 19.688 98.1686 18.696C99.5286 17.688 101.177 17.184 103.113 17.184ZM100.977 22.848C101.041 22.864 101.129 22.872 101.241 22.872C101.913 22.872 102.425 22.56 102.777 21.936C103.129 21.312 103.297 20.616 103.281 19.848C103.265 19.4 103.137 19.176 102.897 19.176C102.721 19.176 102.513 19.32 102.273 19.608C102.033 19.88 101.793 20.296 101.553 20.856C101.329 21.416 101.137 22.08 100.977 22.848ZM120.118 17.304C120.966 17.304 121.67 17.608 122.23 18.216C122.79 18.824 123.07 19.656 123.07 20.712C123.07 22.136 122.574 23.592 121.582 25.08C120.59 26.568 119.334 27.8 117.814 28.776C116.294 29.736 114.814 30.216 113.374 30.216C111.998 30.216 110.878 29.936 110.014 29.376C109.166 28.816 108.742 28.016 108.742 26.976C108.742 26.592 108.814 26.16 108.958 25.68L110.47 20.52C110.502 20.392 110.518 20.296 110.518 20.232C110.518 20.072 110.478 19.936 110.398 19.824C110.318 19.712 110.206 19.592 110.062 19.464C109.822 19.256 109.702 19.072 109.702 18.912C109.686 18.688 109.822 18.448 110.11 18.192C110.398 17.936 110.798 17.728 111.31 17.568C111.838 17.392 112.43 17.304 113.086 17.304C114.158 17.304 114.99 17.568 115.582 18.096C116.19 18.608 116.494 19.28 116.494 20.112C116.494 20.48 116.43 20.88 116.302 21.312L114.742 26.448C114.694 26.592 114.67 26.712 114.67 26.808C114.67 27.016 114.742 27.176 114.886 27.288C115.03 27.4 115.23 27.456 115.486 27.456C115.838 27.456 116.246 27.304 116.71 27C117.19 26.68 117.662 26.232 118.126 25.656C118.59 25.064 118.966 24.368 119.254 23.568C118.614 23.008 118.158 22.456 117.886 21.912C117.63 21.368 117.502 20.808 117.502 20.232C117.502 19.416 117.726 18.728 118.174 18.168C118.622 17.592 119.27 17.304 120.118 17.304ZM129.085 17.304C130.013 17.304 130.693 17.48 131.125 17.832C131.557 18.184 131.773 18.664 131.773 19.272C131.773 19.64 131.717 19.992 131.605 20.328L129.397 27.504C129.349 27.696 129.325 27.864 129.325 28.008C129.325 28.216 129.365 28.384 129.445 28.512C129.525 28.624 129.637 28.736 129.781 28.848C129.893 28.96 129.973 29.056 130.021 29.136C130.069 29.2 130.077 29.288 130.045 29.4C129.965 29.608 129.805 29.76 129.565 29.856C129.325 29.952 128.957 30 128.461 30H122.989C122.573 30 122.269 29.936 122.077 29.808C121.885 29.664 121.821 29.48 121.885 29.256C121.949 29.064 122.117 28.896 122.389 28.752C122.629 28.624 122.829 28.472 122.989 28.296C123.149 28.12 123.285 27.84 123.397 27.456L125.485 20.52C125.533 20.376 125.557 20.256 125.557 20.16C125.557 19.984 125.517 19.848 125.437 19.752C125.357 19.64 125.237 19.528 125.077 19.416C124.917 19.288 124.805 19.176 124.741 19.08C124.677 18.984 124.669 18.856 124.717 18.696C124.813 18.328 125.317 18.008 126.229 17.736C127.141 17.448 128.093 17.304 129.085 17.304ZM130.693 12C131.317 12 131.837 12.208 132.253 12.624C132.669 13.024 132.877 13.52 132.877 14.112C132.877 14.528 132.765 14.936 132.541 15.336C132.333 15.736 132.029 16.064 131.629 16.32C131.245 16.56 130.813 16.68 130.333 16.68C129.725 16.68 129.213 16.48 128.797 16.08C128.397 15.664 128.189 15.152 128.173 14.544C128.173 14.144 128.277 13.752 128.485 13.368C128.693 12.968 128.989 12.64 129.373 12.384C129.757 12.128 130.197 12 130.693 12ZM139.459 17.088C140.787 17.088 141.931 17.208 142.891 17.448C143.867 17.688 144.611 18.024 145.122 18.456C145.651 18.888 145.915 19.376 145.915 19.92C145.915 20.48 145.691 20.936 145.243 21.288C144.811 21.64 144.203 21.816 143.419 21.816C142.619 21.816 141.939 21.616 141.379 21.216C140.835 20.816 140.563 20.312 140.563 19.704C140.563 19.496 140.595 19.296 140.659 19.104C140.371 19.024 140.115 18.984 139.891 18.984C139.491 18.984 139.155 19.08 138.883 19.272C138.627 19.464 138.507 19.736 138.523 20.088C138.523 20.504 138.731 20.856 139.147 21.144C139.563 21.432 140.235 21.792 141.163 22.224C141.963 22.576 142.619 22.904 143.131 23.208C143.659 23.496 144.099 23.864 144.451 24.312C144.819 24.76 145.003 25.288 145.003 25.896C145.003 26.024 144.971 26.264 144.907 26.616C144.651 27.688 143.939 28.536 142.771 29.16C141.603 29.784 140.067 30.096 138.163 30.096C136.019 30.096 134.315 29.808 133.051 29.232C131.803 28.656 131.178 27.864 131.178 26.856C131.178 26.168 131.386 25.648 131.803 25.296C132.219 24.944 132.771 24.768 133.459 24.768C134.259 24.768 134.939 25.016 135.499 25.512C136.075 26.008 136.363 26.64 136.363 27.408C136.363 27.616 136.339 27.832 136.291 28.056C136.675 28.152 137.043 28.2 137.395 28.2C137.811 28.2 138.155 28.088 138.427 27.864C138.699 27.64 138.835 27.328 138.835 26.928C138.819 26.56 138.635 26.248 138.283 25.992C137.931 25.72 137.371 25.4 136.603 25.032C135.883 24.696 135.291 24.384 134.827 24.096C134.363 23.792 133.963 23.416 133.627 22.968C133.307 22.52 133.146 21.992 133.146 21.384C133.146 20.072 133.691 19.032 134.779 18.264C135.883 17.48 137.443 17.088 139.459 17.088ZM156.517 17.616C156.821 17.616 157.053 17.68 157.213 17.808C157.389 17.936 157.477 18.112 157.477 18.336C157.477 18.4 157.461 18.512 157.429 18.672C157.221 19.376 156.741 19.728 155.989 19.728H154.597L152.797 25.656C152.717 25.896 152.677 26.144 152.677 26.4C152.677 26.688 152.757 26.888 152.917 27C153.077 27.112 153.301 27.168 153.589 27.168C153.845 27.168 154.165 27.136 154.549 27.072C154.741 27.024 154.909 27 155.053 27C155.165 27 155.245 27.04 155.293 27.12C155.357 27.184 155.389 27.272 155.389 27.384C155.405 27.704 155.165 28.096 154.669 28.56C154.189 29.008 153.533 29.4 152.701 29.736C151.869 30.056 150.949 30.216 149.941 30.216C148.853 30.216 147.981 29.968 147.325 29.472C146.669 28.976 146.341 28.296 146.341 27.432C146.341 27.032 146.405 26.648 146.533 26.28L148.069 21.528C148.149 21.256 148.189 21.04 148.189 20.88C148.189 20.56 148.109 20.288 147.949 20.064C147.805 19.84 147.597 19.608 147.325 19.368C147.085 19.144 146.917 18.96 146.821 18.816C146.725 18.656 146.701 18.472 146.749 18.264C146.813 18.056 146.949 17.896 147.157 17.784C147.365 17.672 147.693 17.616 148.141 17.616H149.485L150.997 16.104C151.525 15.576 152.005 15.208 152.437 15C152.885 14.792 153.461 14.688 154.165 14.688C155.173 14.688 155.677 15.072 155.677 15.84C155.677 16.08 155.645 16.304 155.581 16.512L155.245 17.616H156.517ZM164.67 17.304C166.51 17.304 167.982 17.648 169.086 18.336C170.19 19.008 170.742 20.04 170.742 21.432C170.742 21.96 170.646 22.56 170.454 23.232L169.47 26.544C169.454 26.608 169.446 26.688 169.446 26.784C169.446 27.04 169.55 27.168 169.758 27.168C169.95 27.168 170.11 27.088 170.238 26.928C170.382 26.752 170.478 26.664 170.526 26.664C170.606 26.664 170.67 26.72 170.718 26.832C170.782 26.944 170.814 27.072 170.814 27.216C170.83 27.648 170.662 28.088 170.31 28.536C169.974 28.984 169.518 29.352 168.942 29.64C168.366 29.928 167.734 30.072 167.046 30.072C166.214 30.072 165.502 29.92 164.91 29.616C164.318 29.312 163.91 28.864 163.686 28.272C163.206 28.848 162.638 29.296 161.982 29.616C161.326 29.92 160.622 30.072 159.87 30.072C159.022 30.072 158.31 29.912 157.734 29.592C157.158 29.256 156.726 28.832 156.438 28.32C156.166 27.792 156.03 27.24 156.03 26.664C156.03 26.408 156.054 26.16 156.102 25.92C156.358 24.816 156.91 23.984 157.758 23.424C158.622 22.864 159.646 22.584 160.83 22.584C162.158 22.584 163.462 22.792 164.742 23.208L165.342 21.624C165.55 20.952 165.654 20.432 165.654 20.064C165.638 19.68 165.51 19.392 165.27 19.2C165.03 19.008 164.662 18.912 164.166 18.912C164.262 19.168 164.31 19.432 164.31 19.704C164.31 20.296 164.086 20.808 163.638 21.24C163.19 21.672 162.55 21.888 161.718 21.888C160.934 21.888 160.318 21.72 159.87 21.384C159.438 21.032 159.222 20.6 159.222 20.088C159.222 19.288 159.67 18.624 160.566 18.096C161.462 17.568 162.83 17.304 164.67 17.304ZM163.326 24.576C162.878 24.576 162.51 24.752 162.222 25.104C161.95 25.44 161.814 25.808 161.814 26.208C161.814 26.464 161.87 26.672 161.982 26.832C162.11 26.992 162.286 27.072 162.51 27.072C162.718 27.072 162.942 26.992 163.182 26.832C163.438 26.656 163.622 26.4 163.734 26.064L164.238 24.648C163.966 24.6 163.662 24.576 163.326 24.576ZM185.321 17.184C186.297 17.184 187.153 17.328 187.889 17.616C188.625 17.888 189.193 18.272 189.593 18.768C190.009 19.248 190.217 19.784 190.217 20.376C190.217 21.016 189.993 21.544 189.545 21.96C189.113 22.376 188.521 22.584 187.769 22.584C187.001 22.584 186.401 22.392 185.969 22.008C185.537 21.608 185.321 21.072 185.321 20.4C185.321 20.08 185.369 19.744 185.465 19.392C184.793 19.568 184.193 19.92 183.665 20.448C183.153 20.96 182.809 21.64 182.633 22.488C182.537 22.968 182.489 23.4 182.489 23.784C182.489 24.648 182.729 25.304 183.209 25.752C183.689 26.2 184.377 26.424 185.273 26.424C185.785 26.424 186.225 26.376 186.593 26.28C186.961 26.168 187.337 26.024 187.721 25.848C188.041 25.688 188.273 25.608 188.417 25.608C188.513 25.608 188.577 25.632 188.609 25.68C188.641 25.712 188.657 25.792 188.657 25.92C188.673 26.512 188.425 27.136 187.913 27.792C187.417 28.432 186.721 28.976 185.825 29.424C184.945 29.856 183.953 30.072 182.849 30.072C181.697 30.072 180.673 29.864 179.777 29.448C178.897 29.016 178.209 28.408 177.713 27.624C177.233 26.824 176.993 25.896 176.993 24.84C176.993 24.344 177.057 23.792 177.185 23.184C177.617 21.2 178.569 19.704 180.041 18.696C181.529 17.688 183.289 17.184 185.321 17.184ZM198.905 17.304C201.081 17.304 202.681 17.744 203.705 18.624C204.745 19.504 205.265 20.656 205.265 22.08C205.265 22.56 205.201 23.096 205.073 23.688C204.769 25 204.201 26.152 203.369 27.144C202.537 28.12 201.513 28.88 200.297 29.424C199.097 29.952 197.793 30.216 196.385 30.216C194.161 30.216 192.513 29.776 191.441 28.896C190.385 28 189.857 26.816 189.857 25.344C189.857 24.848 189.921 24.296 190.049 23.688C190.353 22.44 190.929 21.336 191.777 20.376C192.641 19.4 193.689 18.648 194.921 18.12C196.169 17.576 197.497 17.304 198.905 17.304ZM198.833 19.44C198.497 19.44 198.137 19.744 197.753 20.352C197.385 20.944 196.945 22.072 196.433 23.736C195.921 25.4 195.665 26.568 195.665 27.24C195.665 27.592 195.721 27.832 195.833 27.96C195.945 28.072 196.097 28.128 196.289 28.128C196.625 28.16 196.969 27.872 197.321 27.264C197.689 26.656 198.145 25.472 198.689 23.712C199.185 22.16 199.433 21.032 199.433 20.328C199.433 19.992 199.377 19.76 199.265 19.632C199.169 19.504 199.025 19.44 198.833 19.44ZM228.191 26.688C228.159 26.752 228.143 26.848 228.143 26.976C228.143 27.088 228.167 27.176 228.215 27.24C228.279 27.304 228.359 27.336 228.455 27.336C228.647 27.336 228.807 27.256 228.935 27.096C229.079 26.92 229.175 26.832 229.223 26.832C229.303 26.832 229.367 26.888 229.415 27C229.463 27.096 229.487 27.216 229.487 27.36C229.503 27.824 229.351 28.28 229.031 28.728C228.711 29.16 228.239 29.52 227.615 29.808C227.007 30.08 226.271 30.216 225.407 30.216C224.351 30.216 223.511 29.976 222.887 29.496C222.263 29 221.943 28.344 221.927 27.528C221.927 26.936 222.071 26.272 222.359 25.536L223.679 22.08C223.759 21.872 223.799 21.704 223.799 21.576C223.799 21.368 223.727 21.208 223.583 21.096C223.455 20.968 223.295 20.904 223.103 20.904C222.831 20.904 222.551 21.024 222.263 21.264C221.975 21.504 221.719 21.88 221.495 22.392L220.175 26.688C220.143 26.752 220.127 26.848 220.127 26.976C220.127 27.088 220.151 27.176 220.199 27.24C220.263 27.304 220.343 27.336 220.439 27.336C220.631 27.336 220.791 27.256 220.919 27.096C221.063 26.92 221.159 26.832 221.207 26.832C221.287 26.832 221.351 26.888 221.399 27C221.447 27.096 221.471 27.216 221.471 27.36C221.487 27.824 221.335 28.28 221.015 28.728C220.695 29.16 220.223 29.52 219.599 29.808C218.991 30.08 218.255 30.216 217.391 30.216C216.335 30.216 215.495 29.976 214.871 29.496C214.247 29 213.927 28.344 213.911 27.528C213.911 26.936 214.055 26.272 214.343 25.536L215.663 22.08C215.743 21.872 215.783 21.704 215.783 21.576C215.783 21.368 215.711 21.208 215.567 21.096C215.439 20.968 215.279 20.904 215.087 20.904C214.815 20.904 214.535 21.024 214.247 21.264C213.959 21.488 213.719 21.856 213.527 22.368L211.943 27.504C211.879 27.68 211.847 27.848 211.847 28.008C211.847 28.2 211.887 28.36 211.967 28.488C212.047 28.6 212.159 28.72 212.303 28.848C212.415 28.944 212.495 29.032 212.543 29.112C212.591 29.192 212.599 29.288 212.567 29.4C212.503 29.608 212.351 29.76 212.111 29.856C211.871 29.952 211.495 30 210.983 30H205.511C205.095 30 204.799 29.936 204.623 29.808C204.431 29.664 204.359 29.48 204.407 29.256C204.471 29.064 204.639 28.896 204.911 28.752C205.151 28.624 205.351 28.472 205.511 28.296C205.671 28.12 205.807 27.84 205.919 27.456L208.055 20.52C208.087 20.44 208.103 20.328 208.103 20.184C208.103 20.008 208.063 19.872 207.983 19.776C207.919 19.68 207.807 19.56 207.647 19.416C207.487 19.288 207.375 19.176 207.311 19.08C207.247 18.984 207.239 18.856 207.287 18.696C207.383 18.328 207.887 18.008 208.799 17.736C209.711 17.448 210.663 17.304 211.655 17.304C212.439 17.304 213.055 17.52 213.503 17.952C213.967 18.384 214.191 18.976 214.175 19.728C214.831 18.816 215.519 18.184 216.239 17.832C216.975 17.48 217.767 17.304 218.615 17.304C219.543 17.304 220.295 17.576 220.871 18.12C221.463 18.648 221.791 19.344 221.855 20.208C222.543 19.12 223.279 18.368 224.063 17.952C224.847 17.52 225.703 17.304 226.631 17.304C227.607 17.304 228.391 17.6 228.983 18.192C229.591 18.784 229.895 19.552 229.895 20.496C229.895 20.992 229.815 21.48 229.655 21.96L228.191 26.688ZM78.7924 48.872C79.6884 48.872 80.5124 48.984 81.2644 49.208C82.0324 49.416 82.8084 49.752 83.5924 50.216L84.1444 49.76C84.5284 49.456 84.8404 49.248 85.0804 49.136C85.3364 49.024 85.6244 48.968 85.9444 48.968C86.3284 48.968 86.6324 49.056 86.8564 49.232C87.0804 49.392 87.1924 49.632 87.1924 49.952C87.1924 50.08 87.1684 50.216 87.1204 50.36L86.1124 53.672C86.0004 54.056 85.8564 54.328 85.6804 54.488C85.5204 54.648 85.2724 54.728 84.9364 54.728C84.5844 54.728 84.2724 54.624 84.0004 54.416C83.7444 54.192 83.3364 53.744 82.7764 53.072C82.2164 52.432 81.7044 51.984 81.2404 51.728C80.7924 51.456 80.3284 51.32 79.8484 51.32C79.4964 51.32 79.2004 51.44 78.9604 51.68C78.7204 51.904 78.6004 52.184 78.6004 52.52C78.6004 52.904 78.7924 53.264 79.1764 53.6C79.5604 53.92 80.1604 54.328 80.9764 54.824C81.8084 55.32 82.4964 55.768 83.0404 56.168C83.5844 56.568 84.0484 57.064 84.4324 57.656C84.8164 58.248 85.0084 58.928 85.0084 59.696C85.0084 60.192 84.9284 60.688 84.7684 61.184C84.3844 62.464 83.6404 63.44 82.5364 64.112C81.4324 64.768 80.1444 65.096 78.6724 65.096C77.5684 65.096 76.6404 64.968 75.8884 64.712C75.1364 64.456 74.3684 64.024 73.5844 63.416L72.7204 64.136C72.3204 64.472 71.9924 64.704 71.7364 64.832C71.4804 64.944 71.1924 65 70.8724 65C70.5044 65 70.2084 64.912 69.9844 64.736C69.7764 64.56 69.6724 64.32 69.6724 64.016C69.6724 63.856 69.7044 63.688 69.7684 63.512L70.9444 59.936C71.0724 59.52 71.2484 59.224 71.4724 59.048C71.6964 58.872 71.9844 58.784 72.3364 58.784C72.7044 58.784 73.0324 58.912 73.3204 59.168C73.6244 59.424 74.0164 59.888 74.4964 60.56C75.0084 61.296 75.4804 61.808 75.9124 62.096C76.3604 62.384 76.8884 62.528 77.4964 62.528C77.9284 62.528 78.2564 62.464 78.4804 62.336C78.7204 62.192 78.8884 61.968 78.9844 61.664C79.0164 61.584 79.0324 61.464 79.0324 61.304C79.0324 60.92 78.8484 60.568 78.4804 60.248C78.1124 59.928 77.5444 59.544 76.7764 59.096C75.9604 58.6 75.2964 58.16 74.7844 57.776C74.2724 57.376 73.8244 56.88 73.4404 56.288C73.0724 55.696 72.8884 55 72.8884 54.2C72.8884 53.64 72.9764 53.088 73.1524 52.544C73.4884 51.44 74.1764 50.552 75.2164 49.88C76.2564 49.208 77.4484 48.872 78.7924 48.872ZM98.1473 52.304C99.0433 52.304 99.7553 52.576 100.283 53.12C100.827 53.664 101.099 54.336 101.099 55.136C101.099 55.44 101.067 55.72 101.003 55.976C100.843 56.632 100.539 57.136 100.091 57.488C99.6433 57.84 99.1073 58.016 98.4833 58.016C97.8753 58.016 97.4113 57.872 97.0913 57.584C96.7873 57.296 96.5153 56.912 96.2753 56.432C96.1473 56.16 96.0273 55.96 95.9153 55.832C95.8033 55.704 95.6753 55.64 95.5313 55.64C95.3713 55.64 95.2273 55.704 95.0993 55.832C94.9873 55.96 94.8833 56.184 94.7873 56.504L92.9393 62.504C92.9073 62.584 92.8913 62.704 92.8913 62.864C92.8913 63.072 92.9473 63.248 93.0593 63.392C93.1873 63.52 93.3553 63.648 93.5633 63.776C93.7553 63.904 93.8833 64.008 93.9473 64.088C94.0113 64.168 94.0353 64.272 94.0193 64.4C93.9873 64.608 93.8673 64.76 93.6593 64.856C93.4673 64.952 93.1313 65 92.6513 65H86.5073C86.0913 65 85.7953 64.936 85.6193 64.808C85.4273 64.664 85.3553 64.48 85.4033 64.256C85.4673 64.064 85.6353 63.896 85.9073 63.752C86.1473 63.624 86.3473 63.472 86.5073 63.296C86.6673 63.12 86.8033 62.84 86.9153 62.456L89.0513 55.52C89.0833 55.44 89.0993 55.328 89.0993 55.184C89.0993 55.008 89.0593 54.872 88.9793 54.776C88.9153 54.68 88.8033 54.56 88.6433 54.416C88.4833 54.288 88.3713 54.176 88.3073 54.08C88.2433 53.984 88.2353 53.856 88.2833 53.696C88.3793 53.328 88.8833 53.008 89.7953 52.736C90.7073 52.448 91.6593 52.304 92.6513 52.304C93.3073 52.304 93.8513 52.456 94.2833 52.76C94.7153 53.048 94.9953 53.464 95.1233 54.008C95.8913 52.872 96.8993 52.304 98.1473 52.304ZM103.118 60.152C103.758 60.152 104.294 60.368 104.726 60.8C105.174 61.232 105.398 61.76 105.398 62.384C105.398 62.816 105.278 63.24 105.038 63.656C104.814 64.072 104.494 64.416 104.078 64.688C103.678 64.944 103.222 65.072 102.71 65.072C102.086 65.072 101.558 64.856 101.126 64.424C100.694 63.992 100.47 63.464 100.454 62.84C100.454 62.408 100.566 61.984 100.79 61.568C101.014 61.152 101.326 60.816 101.726 60.56C102.142 60.288 102.606 60.152 103.118 60.152ZM125.799 49.016C126.887 49.016 127.831 49.184 128.631 49.52C129.447 49.84 130.063 50.288 130.479 50.864C130.911 51.424 131.127 52.072 131.127 52.808C131.127 53.224 131.071 53.608 130.959 53.96C130.495 55.576 129.159 56.6 126.951 57.032C127.719 57.256 128.327 57.632 128.775 58.16C129.223 58.672 129.447 59.312 129.447 60.08C129.447 60.432 129.383 60.848 129.255 61.328C128.903 62.576 128.191 63.504 127.119 64.112C126.063 64.704 124.559 65 122.607 65H112.623C112.287 65 112.031 64.944 111.855 64.832C111.663 64.72 111.567 64.568 111.567 64.376C111.567 64.28 111.591 64.176 111.639 64.064C111.703 63.888 111.807 63.752 111.951 63.656C112.095 63.56 112.183 63.504 112.215 63.488C112.471 63.328 112.679 63.168 112.839 63.008C112.999 62.832 113.135 62.552 113.247 62.168L116.175 51.824C116.239 51.616 116.271 51.416 116.271 51.224C116.271 51.048 116.239 50.904 116.175 50.792C116.127 50.664 116.055 50.52 115.959 50.36C115.815 50.152 115.743 49.984 115.743 49.856C115.743 49.808 115.759 49.72 115.791 49.592C115.855 49.384 115.991 49.24 116.199 49.16C116.423 49.064 116.759 49.016 117.207 49.016H125.799ZM124.719 53.408C124.831 53.056 124.887 52.728 124.887 52.424C124.887 51.592 124.415 51.176 123.471 51.176H122.391L121.119 55.664H122.175C122.847 55.664 123.375 55.504 123.759 55.184C124.159 54.848 124.479 54.256 124.719 53.408ZM122.967 60.464C123.079 60.08 123.135 59.728 123.135 59.408C123.135 58.544 122.639 58.112 121.647 58.112H120.447L119.079 62.84H120.303C120.991 62.84 121.543 62.672 121.959 62.336C122.375 61.984 122.711 61.36 122.967 60.464ZM139.017 52.304C140.857 52.304 142.329 52.648 143.433 53.336C144.537 54.008 145.089 55.04 145.089 56.432C145.089 56.96 144.993 57.56 144.801 58.232L143.817 61.544C143.801 61.608 143.793 61.688 143.793 61.784C143.793 62.04 143.897 62.168 144.105 62.168C144.297 62.168 144.457 62.088 144.585 61.928C144.729 61.752 144.825 61.664 144.873 61.664C144.953 61.664 145.017 61.72 145.065 61.832C145.129 61.944 145.161 62.072 145.161 62.216C145.177 62.648 145.009 63.088 144.657 63.536C144.321 63.984 143.865 64.352 143.289 64.64C142.713 64.928 142.081 65.072 141.393 65.072C140.561 65.072 139.849 64.92 139.257 64.616C138.665 64.312 138.257 63.864 138.033 63.272C137.553 63.848 136.985 64.296 136.329 64.616C135.673 64.92 134.969 65.072 134.217 65.072C133.369 65.072 132.657 64.912 132.081 64.592C131.505 64.256 131.073 63.832 130.785 63.32C130.513 62.792 130.377 62.24 130.377 61.664C130.377 61.408 130.401 61.16 130.449 60.92C130.705 59.816 131.257 58.984 132.105 58.424C132.969 57.864 133.993 57.584 135.177 57.584C136.505 57.584 137.809 57.792 139.089 58.208L139.689 56.624C139.897 55.952 140.001 55.432 140.001 55.064C139.985 54.68 139.857 54.392 139.617 54.2C139.377 54.008 139.009 53.912 138.513 53.912C138.609 54.168 138.657 54.432 138.657 54.704C138.657 55.296 138.433 55.808 137.985 56.24C137.537 56.672 136.897 56.888 136.065 56.888C135.281 56.888 134.665 56.72 134.217 56.384C133.785 56.032 133.569 55.6 133.569 55.088C133.569 54.288 134.017 53.624 134.913 53.096C135.809 52.568 137.177 52.304 139.017 52.304ZM137.673 59.576C137.225 59.576 136.857 59.752 136.569 60.104C136.297 60.44 136.161 60.808 136.161 61.208C136.161 61.464 136.217 61.672 136.329 61.832C136.457 61.992 136.633 62.072 136.857 62.072C137.065 62.072 137.289 61.992 137.529 61.832C137.785 61.656 137.969 61.4 138.081 61.064L138.585 59.648C138.313 59.6 138.009 59.576 137.673 59.576ZM156.88 52.616C157.184 52.616 157.416 52.68 157.576 52.808C157.752 52.936 157.84 53.112 157.84 53.336C157.84 53.4 157.824 53.512 157.792 53.672C157.584 54.376 157.104 54.728 156.352 54.728H154.96L153.16 60.656C153.08 60.896 153.04 61.144 153.04 61.4C153.04 61.688 153.12 61.888 153.28 62C153.44 62.112 153.664 62.168 153.952 62.168C154.208 62.168 154.528 62.136 154.912 62.072C155.104 62.024 155.272 62 155.416 62C155.528 62 155.608 62.04 155.656 62.12C155.72 62.184 155.752 62.272 155.752 62.384C155.768 62.704 155.528 63.096 155.032 63.56C154.552 64.008 153.896 64.4 153.064 64.736C152.232 65.056 151.312 65.216 150.304 65.216C149.216 65.216 148.344 64.968 147.688 64.472C147.032 63.976 146.704 63.296 146.704 62.432C146.704 62.032 146.768 61.648 146.896 61.28L148.432 56.528C148.512 56.256 148.552 56.04 148.552 55.88C148.552 55.56 148.472 55.288 148.312 55.064C148.168 54.84 147.96 54.608 147.688 54.368C147.448 54.144 147.28 53.96 147.184 53.816C147.088 53.656 147.064 53.472 147.112 53.264C147.176 53.056 147.312 52.896 147.52 52.784C147.728 52.672 148.056 52.616 148.504 52.616H149.848L151.36 51.104C151.888 50.576 152.368 50.208 152.8 50C153.248 49.792 153.824 49.688 154.528 49.688C155.536 49.688 156.04 50.072 156.04 50.84C156.04 51.08 156.008 51.304 155.944 51.512L155.608 52.616H156.88ZM165.033 52.304C166.873 52.304 168.345 52.648 169.449 53.336C170.553 54.008 171.105 55.04 171.105 56.432C171.105 56.96 171.009 57.56 170.817 58.232L169.833 61.544C169.817 61.608 169.809 61.688 169.809 61.784C169.809 62.04 169.913 62.168 170.121 62.168C170.313 62.168 170.473 62.088 170.601 61.928C170.745 61.752 170.841 61.664 170.889 61.664C170.969 61.664 171.033 61.72 171.081 61.832C171.145 61.944 171.177 62.072 171.177 62.216C171.193 62.648 171.025 63.088 170.673 63.536C170.337 63.984 169.881 64.352 169.305 64.64C168.729 64.928 168.097 65.072 167.409 65.072C166.577 65.072 165.865 64.92 165.273 64.616C164.681 64.312 164.273 63.864 164.049 63.272C163.569 63.848 163.001 64.296 162.345 64.616C161.689 64.92 160.985 65.072 160.233 65.072C159.385 65.072 158.673 64.912 158.097 64.592C157.521 64.256 157.089 63.832 156.801 63.32C156.529 62.792 156.393 62.24 156.393 61.664C156.393 61.408 156.417 61.16 156.465 60.92C156.721 59.816 157.273 58.984 158.121 58.424C158.985 57.864 160.009 57.584 161.193 57.584C162.521 57.584 163.825 57.792 165.105 58.208L165.705 56.624C165.913 55.952 166.017 55.432 166.017 55.064C166.001 54.68 165.873 54.392 165.633 54.2C165.393 54.008 165.025 53.912 164.529 53.912C164.625 54.168 164.673 54.432 164.673 54.704C164.673 55.296 164.449 55.808 164.001 56.24C163.553 56.672 162.913 56.888 162.081 56.888C161.297 56.888 160.681 56.72 160.233 56.384C159.801 56.032 159.585 55.6 159.585 55.088C159.585 54.288 160.033 53.624 160.929 53.096C161.825 52.568 163.193 52.304 165.033 52.304ZM163.689 59.576C163.241 59.576 162.873 59.752 162.585 60.104C162.313 60.44 162.177 60.808 162.177 61.208C162.177 61.464 162.233 61.672 162.345 61.832C162.473 61.992 162.649 62.072 162.873 62.072C163.081 62.072 163.305 61.992 163.545 61.832C163.801 61.656 163.985 61.4 164.097 61.064L164.601 59.648C164.329 59.6 164.025 59.576 163.689 59.576ZM182.896 52.616C183.2 52.616 183.432 52.68 183.592 52.808C183.768 52.936 183.856 53.112 183.856 53.336C183.856 53.4 183.84 53.512 183.808 53.672C183.6 54.376 183.12 54.728 182.368 54.728H180.976L179.176 60.656C179.096 60.896 179.056 61.144 179.056 61.4C179.056 61.688 179.136 61.888 179.296 62C179.456 62.112 179.68 62.168 179.968 62.168C180.224 62.168 180.544 62.136 180.928 62.072C181.12 62.024 181.288 62 181.432 62C181.544 62 181.624 62.04 181.672 62.12C181.736 62.184 181.768 62.272 181.768 62.384C181.784 62.704 181.544 63.096 181.048 63.56C180.568 64.008 179.912 64.4 179.08 64.736C178.248 65.056 177.328 65.216 176.32 65.216C175.232 65.216 174.36 64.968 173.704 64.472C173.048 63.976 172.72 63.296 172.72 62.432C172.72 62.032 172.784 61.648 172.912 61.28L174.448 56.528C174.528 56.256 174.568 56.04 174.568 55.88C174.568 55.56 174.488 55.288 174.328 55.064C174.184 54.84 173.976 54.608 173.704 54.368C173.464 54.144 173.296 53.96 173.2 53.816C173.104 53.656 173.08 53.472 173.128 53.264C173.192 53.056 173.328 52.896 173.536 52.784C173.744 52.672 174.072 52.616 174.52 52.616H175.864L177.376 51.104C177.904 50.576 178.384 50.208 178.816 50C179.264 49.792 179.84 49.688 180.544 49.688C181.552 49.688 182.056 50.072 182.056 50.84C182.056 51.08 182.024 51.304 181.96 51.512L181.624 52.616H182.896ZM191.048 52.304C192.888 52.304 194.36 52.648 195.464 53.336C196.568 54.008 197.12 55.04 197.12 56.432C197.12 56.96 197.024 57.56 196.832 58.232L195.848 61.544C195.832 61.608 195.824 61.688 195.824 61.784C195.824 62.04 195.928 62.168 196.136 62.168C196.328 62.168 196.488 62.088 196.616 61.928C196.76 61.752 196.856 61.664 196.904 61.664C196.984 61.664 197.048 61.72 197.096 61.832C197.16 61.944 197.192 62.072 197.192 62.216C197.208 62.648 197.04 63.088 196.688 63.536C196.352 63.984 195.896 64.352 195.32 64.64C194.744 64.928 194.112 65.072 193.424 65.072C192.592 65.072 191.88 64.92 191.288 64.616C190.696 64.312 190.288 63.864 190.064 63.272C189.584 63.848 189.016 64.296 188.36 64.616C187.704 64.92 187 65.072 186.248 65.072C185.4 65.072 184.688 64.912 184.112 64.592C183.536 64.256 183.104 63.832 182.816 63.32C182.544 62.792 182.408 62.24 182.408 61.664C182.408 61.408 182.432 61.16 182.48 60.92C182.736 59.816 183.288 58.984 184.136 58.424C185 57.864 186.024 57.584 187.208 57.584C188.536 57.584 189.84 57.792 191.12 58.208L191.72 56.624C191.928 55.952 192.032 55.432 192.032 55.064C192.016 54.68 191.888 54.392 191.648 54.2C191.408 54.008 191.04 53.912 190.544 53.912C190.64 54.168 190.688 54.432 190.688 54.704C190.688 55.296 190.464 55.808 190.016 56.24C189.568 56.672 188.928 56.888 188.096 56.888C187.312 56.888 186.696 56.72 186.248 56.384C185.816 56.032 185.6 55.6 185.6 55.088C185.6 54.288 186.048 53.624 186.944 53.096C187.84 52.568 189.208 52.304 191.048 52.304ZM189.704 59.576C189.256 59.576 188.888 59.752 188.6 60.104C188.328 60.44 188.192 60.808 188.192 61.208C188.192 61.464 188.248 61.672 188.36 61.832C188.488 61.992 188.664 62.072 188.888 62.072C189.096 62.072 189.32 61.992 189.56 61.832C189.816 61.656 190 61.4 190.112 61.064L190.616 59.648C190.344 59.6 190.04 59.576 189.704 59.576Z" fill="#DDAA22"/>
</g>
</g>
<defs>
<filter id="filter0_d" x="0" y="0" width="268" height="89" filterUnits="userSpaceOnUse" color-interpolation-filters="sRGB">
<feFlood flood-opacity="0" result="BackgroundImageFix"/>
<feColorMatrix in="SourceAlpha" type="matrix" values="0 0 0 0 0 0 0 0 0 0 0 0 0 0 0 0 0 0 127 0"/>
<feOffset dy="4"/>
<feGaussianBlur stdDeviation="2"/>
<feColorMatrix type="matrix" values="0 0 0 0 0 0 0 0 0 0 0 0 0 0 0 0 0 0 0.25 0"/>
<feBlend mode="normal" in2="BackgroundImageFix" result="effect1_dropShadow"/>
<feBlend mode="normal" in="SourceGraphic" in2="effect1_dropShadow" result="shape"/>
</filter>
<filter id="filter1_d" x="36.8604" y="12" width="195.035" height="55.216" filterUnits="userSpaceOnUse" color-interpolation-filters="sRGB">
<feFlood flood-opacity="0" result="BackgroundImageFix"/>
<feColorMatrix in="SourceAlpha" type="matrix" values="0 0 0 0 0 0 0 0 0 0 0 0 0 0 0 0 0 0 127 0"/>
<feOffset dx="2" dy="2"/>
<feColorMatrix type="matrix" values="0 0 0 0 0.533333 0 0 0 0 0.333333 0 0 0 0 0 0 0 0 1 0"/>
<feBlend mode="normal" in2="BackgroundImageFix" result="effect1_dropShadow"/>
<feBlend mode="normal" in="SourceGraphic" in2="effect1_dropShadow" result="shape"/>
</filter>
<linearGradient id="paint0_linear" x1="4" y1="0" x2="268.663" y2="20.3474" gradientUnits="userSpaceOnUse">
<stop stop-color="#111111"/>
<stop offset="1" stop-color="#2B2B2B"/>
</linearGradient>
</defs>
</svg>
